<?xml version="1.0" encoding="UTF-8" standalone="no"?>
<!-- Created with Inkscape (http://www.inkscape.org/) -->

<svg
   version="1.1"
   id="svg1"
   width="1254"
   height="1254"
   viewBox="0 0 1254 1254"
   xmlns="http://www.w3.org/2000/svg"
   xmlns:svg="http://www.w3.org/2000/svg">
  <defs
     id="defs1" />
  <g
     id="g1">
    <path
       id="path12"
       style="fill:#00ff00"
       d="m 436.19531,186.28906 c -21.83705,-0.40784 -43.77142,2.04372 -63.0039,7.40821 -36.99989,10.32033 -64.5799,26.17848 -88.68164,50.99023 -29.24318,30.10462 -46.90193,68.09454 -53.62305,115.36719 -1.01764,7.15753 -1.2793,73.28185 -1.2793,323 v 314 l 2.4043,5.96871 c 4.92951,12.2408 16.05079,19.808 31.5957,21.4981 10.34737,1.1248 10.69617,1.1231 19.09375,-0.045 15.01983,-2.0891 24.1712,-7.5621 29.73633,-17.7871 5.58987,-10.27037 5.63344,-11.08023 5.65234,-103.38481 0.01,-46.6125 0.26952,-84.75 0.57618,-84.75 0.30665,0 3.79415,2.73748 7.75,6.08398 26.14686,22.11931 57.4223,36.65458 92.5371,43.00781 14.37074,2.60006 44.21838,3.59182 59.23829,1.96875 76.13179,-8.22692 132.53952,-50.24907 158.39648,-118.00585 3.66102,-9.5935 7.59118,-24.59227 10.10352,-38.55469 2.16136,-12.01185 3.05042,-47.99823 1.50976,-61.09961 -6.80237,-57.84577 -34.2409,-102.40252 -80.86914,-131.32227 -16.80132,-10.42051 -39.48112,-20.37708 -58.47461,-25.67187 -3.7125,-1.03493 -6.75,-2.12677 -6.75,-2.42578 0,-0.29901 5.14978,-2.94045 11.44336,-5.86914 49.02459,-22.81338 79.62741,-62.50229 89.14063,-115.61133 2.47561,-13.82027 2.52247,-45.22668 0.0879,-58.23633 -4.66759,-24.9421 -14.10017,-47.1479 -27.50977,-64.76367 -6.84055,-8.98621 -20.67342,-22.19905 -30.73047,-29.35157 -11.23498,-7.99025 -31.61404,-18.0461 -45.93164,-22.66406 -18.83652,-6.07548 -40.57505,-9.34216 -62.41211,-9.75 z m -1.83008,67.75977 c 2.96755,0.0413 5.80069,0.19522 8.35938,0.4707 31.6434,3.40693 52.02121,16.6579 63.87891,41.53516 6.31261,13.24376 7.65387,19.47215 8.23437,38.21289 0.38869,12.54809 0.11532,18.53867 -1.21484,26.5 -5.84111,34.96043 -24.7039,65.80772 -50.89453,83.23437 -14.66272,9.75624 -28.7255,15.3465 -50.6211,20.1211 -19.66574,4.28835 -26.30648,8.80154 -29.59375,20.10937 -2.51881,8.66439 -1.61984,24.99184 1.78711,32.4336 4.70338,10.27353 11.2579,13.4089 32.30664,15.45703 28.63469,2.78628 44.4722,6.13475 61.98438,13.10547 35.97949,14.32161 61.52497,40.50146 73.06445,74.87695 15.34367,45.708 8.1817,100.78829 -17.60742,135.41211 -16.78478,22.53484 -38.54519,36.03391 -69.44141,43.07617 -6.90204,1.57319 -13.54558,2.14246 -28.5,2.44727 -24.14431,0.49213 -37.77558,-1.23262 -55.5332,-7.0293 -34.54315,-11.27602 -53.39631,-33.99415 -60.12891,-72.45703 -1.73152,-9.89207 -1.83789,-19.58994 -1.83789,-167.5 0,-145.10909 0.13619,-158.09821 1.79883,-171.5 2.28205,-18.39448 4.97064,-31.69091 8.87109,-43.88086 14.3817,-44.94656 42.15101,-74.01202 78.49219,-82.15625 7.57715,-1.69807 17.69307,-2.59257 26.5957,-2.46875 z" />
    <path
       style="fill:#00ff00"
       d="m 655.37899,1025.0141 c -10.61251,-2.8583 -19.10768,-10.6501 -21.83314,-20.0253 -3.37493,-11.60937 0.34225,-21.78229 15.14025,-41.43489 40.03601,-53.17015 68.80506,-94.89439 114.11298,-165.5 14.99374,-23.3655 54.25368,-85.7041 62.10543,-98.61363 l 2.19786,-3.61363 -5.41406,-14.38637 c -23.96896,-63.69092 -48.08193,-120.86693 -63.21193,-149.88637 -23.91486,-45.86886 -41.67089,-54.51533 -76.17855,-37.09592 -13.40713,6.7679 -22.62938,4.73309 -28.46194,-6.27987 -1.74612,-3.29701 -2.18861,-5.83822 -2.20615,-12.66988 -0.0202,-7.88664 0.26845,-9.13368 3.74346,-16.17061 8.76694,-17.75312 31.90601,-31.60955 62.36061,-37.34357 12.49169,-2.35194 37.69977,-1.55474 48.374,1.52982 30.72593,8.87896 50.95757,32.32061 71.81715,83.21189 9.89245,24.13468 24.4255,63.8228 36.91771,100.81814 2.50719,7.425 4.88227,13.86724 5.27793,14.31609 0.78305,0.88831 12.55114,-18.86159 50.2402,-84.31609 42.59514,-73.97486 49.61649,-84.85196 64.24701,-99.528 14.19799,-14.24219 24.14579,-18.08172 44.79929,-17.29116 10.8838,0.4166 11.9886,0.65731 19.0618,4.15304 13.5734,6.70837 20.1434,17.54936 17.7769,29.33324 -1.8067,8.99595 -6.6816,17.16378 -25.3895,42.53952 -22.4839,30.4976 -47.4228,66.26801 -74.45555,106.79336 -38.97693,58.43103 -63.98586,97.58443 -63.48399,99.38907 1.32806,4.77553 39.48448,101.78181 52.11031,132.48172 15.79563,38.40733 31.08818,71.84617 39.75303,86.92429 8.8417,15.38594 20.6755,27.65807 30.1896,31.30781 8.6003,3.29918 18.9744,3.612 29.2037,0.8806 4.6389,-1.23867 10.0928,-2.46118 12.1198,-2.71668 7.6109,-0.95938 15.1758,3.91696 18.9435,12.211 2.6086,5.74225 2.5133,17.73064 -0.1983,24.97827 -5.9852,15.99661 -25.2923,28.96791 -50.4306,33.88091 -31.5861,6.1733 -60.78068,0.3315 -81.6099,-16.3299 -28.06838,-22.45214 -47.3738,-63.50936 -93.10442,-198.00709 -6.07769,-17.875 -11.4549,-33.5789 -11.94935,-34.89755 -0.79192,-2.11195 -3.05033,1.52133 -18.95841,30.5 -80.58368,146.79378 -100.63276,180.59803 -118.251,199.38004 -15.46833,16.4901 -29.66319,23.0743 -49.48225,22.9517 -5.85456,-0.036 -12.99763,-0.6995 -15.87348,-1.474 z"
       id="path10" />
    <path
       style="fill:#800000"
       d="m 1206.7639,1253.6613 c -5.9592,-0.5171 -119.5332,-234.0364 -116.5105,-237.3743 18.2065,-20.10444 162.0045,126.0524 163.3122,114.3455 0.5927,-5.3061 0.4704,10.022 0.4764,48.7607 l 0.01,74.5015 c -16.8045,0.1032 -30.4427,1.2284 -47.2877,-0.2334 z"
       id="path9" />
    <path
       style="fill:#800000"
       d="m 0.10399481,1172.4953 0.30549664,-24.812 C 0.71289686,1123.0411 625.65077,999.32388 642.37387,1018.8699 c 18.4521,21.5668 -558.021808,230.6466 -529.62511,235.0751 8.11404,1.2654 3.87637,1.3912 -50.390948,1.4952 L 5.9233534e-7,1255.5539 Z"
       id="path3" />
    <path
       style="fill:#d40000"
       d="M 1253.7095,113.02695 C 208.21126,284.22157 1200.8829,9.1557333 1254.3675,-0.68164515 L 1197.3578,1.6472952 C -206.10039,379.84124 1250.6802,136.37919 1253.7095,113.02695 Z"
       id="path14" />
  </g>
</svg>
