<?xml version="1.0" encoding="UTF-8"?>
<!-- Created with Inkscape (http://www.inkscape.org/) -->
<svg width="888" height="888" version="1.1" viewBox="251 133 888 888" xmlns="http://www.w3.org/2000/svg">
 <path d="m353.17 942.48 49.282-48.706 5e-3 -306 5e-3 -306 32.584-33c17.921-18.15 44.323-44.813 58.671-59.252l26.087-26.252 504.48 0.50389-21.151 21.5c-11.633 11.825-34.676 35.225-51.207 52-16.531 16.775-36.772 37.352-44.982 45.726l-14.926 15.226 49.366 49.926v113.09l-28.75 28.785c-15.812 15.832-47.144 47.375-69.625 70.097l-40.875 41.312 3.871 4.1704c4.7072 5.0714 25.778 26.914 49.379 51.189 9.625 9.8995 24.025 24.752 32 33.005 7.975 8.2534 28.9 29.86 46.5 48.014 17.6 18.154 44.592 46.047 59.982 61.985 37.761 39.104 59.054 61.018 76.98 79.228l15.013 15.25-171.98-0.036 7-6.6858c3.85-3.6772 11.614-11.16 17.253-16.628l10.253-9.9419-19.253-19.571c-10.589-10.764-36.128-36.679-56.753-57.589-56.173-56.949-97.036-98.468-111.57-113.37l-12.995-13.317-43.406 43.817c-23.873 24.099-92.933 93.767-153.47 154.82-60.533 61.05-115.44 116.51-122.01 123.25l-11.947 12.25-113.11-0.088zm292.74-293.53c25.288-25.752 46.14-47.273 46.337-47.824 0.42493-1.1887-2.0678-3.7881-69.866-72.853-28.885-29.425-58.016-59.125-64.736-66l-12.217-12.5-0.018-112 11.258 11.5c6.1921 6.325 30.598 31.3 54.236 55.5 76.455 78.274 85.591 87.6 111.87 114.2l25.89 26.203 38.136-38.702c20.975-21.286 47.912-48.739 59.86-61.007l21.725-22.306-0.044-46.389-33.928-34.5c-18.66-18.975-33.95-34.779-33.978-35.12s8.5309-12.041 19.02-26l19.07-25.38-286.64-0.54344-60.5 61.028 0.0336 488.51 54.255-54.5c29.84-29.975 74.945-75.57 100.23-101.32z" fill="#00b91f" fill-opacity=".93187" stroke="#000" stroke-width="10"/>
</svg>
