<?xml version="1.0" encoding="UTF-8" standalone="no"?>
<!-- Created with Inkscape (http://www.inkscape.org/) -->

<svg
   version="1.1"
   id="svg1"
   width="945"
   height="945"
   viewBox="192 138 945 945"
   xmlns="http://www.w3.org/2000/svg"
   xmlns:svg="http://www.w3.org/2000/svg">
  <defs
     id="defs1" />
  <g
     id="g1">
    <path
       style="fill:#00ff00;stroke:#000000;stroke-width:5;stroke-dasharray:none"
       d="m 641.79373,1060.1882 c -62.05541,-5.1258 -120.11453,-28.706 -158.47919,-64.36504 -16.9279,-15.734 -33.61359,-38.4075 -41.57168,-56.49 -17.38404,-39.5003 -18.90319,-78.12597 -4.72242,-120.07123 8.84155,-26.15237 25.56435,-53.4474 50.25805,-82.03144 7.1926,-8.32575 60.64744,-63.56172 133.54034,-137.98991 44.6318,-45.57189 121.2139,-124.6055 128.3999,-132.51009 19.8862,-21.87503 31.6814,-44.55743 36.661,-70.5 2.3281,-12.12886 1.4766,-32.10105 -1.9274,-45.20581 -4.6383,-17.85714 -13.809,-34.39998 -26.6918,-48.14885 -16.828,-17.95926 -37.8408,-30.16806 -62.495,-36.31061 -9.912,-2.46956 -12.7589,-2.7385 -29.4718,-2.78417 -19.772,-0.054 -26.0553,0.87374 -42,6.20157 -51.3897,17.17152 -86.39977,68.02423 -81.04872,117.72452 1.81642,16.87076 7.14457,33.13321 15.19975,46.39231 9.58174,15.77186 11.35451,17.65358 81.84197,86.87165 l 16.4931,16.19604 -16.5035,16.78167 c -9.0769,9.22993 -26.2498,26.72325 -38.1619,38.87405 l -21.65836,22.09237 -23.3312,-22.532 c -62.88902,-60.7348 -66.42444,-64.35249 -81.26187,-83.15274 -20.3988,-25.84696 -34.10861,-53.19521 -41.44356,-82.67136 -5.07268,-20.38506 -5.62258,-25.27371 -5.605,-49.82864 0.0177,-24.70504 1.34442,-35.45175 6.94092,-56.22235 20.81026,-77.2343 86.23058,-136.03715 171.53837,-154.18666 20.8679,-4.43974 32.4332,-5.52613 58.5,-5.49522 32.8365,0.0389 49.3993,2.26407 78.1574,10.50006 51.2058,14.66472 97.322,48.13959 125.7152,91.25426 16.6816,25.33064 28.1066,56.93922 32.2237,89.14991 1.9508,15.26228 1.4646,44.86306 -0.9527,58 -8.5476,46.45399 -28.5044,83.95949 -69.4395,130.5 -8.5975,9.77482 -45.6056,48.06226 -112.124,116 -146.89451,150.02905 -152.59008,156.08986 -162.37821,172.79075 -23.75396,40.52997 -10.24145,83.11302 34.82902,109.75942 35.85699,21.1992 82.00399,25.2209 123.87719,10.7958 26.9468,-9.2831 50.0661,-24.3822 83.215,-54.3475 l 13.6314,-12.32219 42.8243,43.41189 c 23.5534,23.8765 42.8461,43.6462 42.8727,43.9326 0.095,1.0254 -23.704,18.8637 -36.9515,27.6961 -52.5284,35.02214 -98.7674,53.17894 -153.5,60.27534 -18.4411,2.3909 -48.7525,3.3075 -65,1.9655 z m 254.5,-90.33524 c 0,-0.2077 -0.7875,-0.9952 -1.75,-1.75 -1.5861,-1.2439 -1.6215,-1.2085 -0.3776,0.3775 1.3064,1.6658 2.1276,2.1955 2.1276,1.3725 z m -473.87722,-4.2388 c -32.07948,-22.8806 -62.64452,-52.8598 -86.54247,-84.88367 -15.60327,-20.90881 -23.12124,-32.88844 -35.14351,-56 -50.00862,-96.13636 -58.57651,-202.90915 -24.51459,-305.5 14.94661,-45.01755 37.11043,-85.58374 67.85349,-124.19144 16.10992,-20.23114 55.78394,-58.99887 66.37609,-64.85985 1.28559,-0.71135 1.57063,-0.52984 1.28556,0.81864 -3.7875,17.91577 -5.51872,51.23923 -3.57968,68.90323 2.35422,21.44609 10.40384,53.29919 18.18473,71.9587 1.26706,3.03856 1.15877,3.29949 -3.73507,9 -32.65486,38.03746 -53.631,88.48693 -58.36407,140.37072 -1.48328,16.25964 -0.7579,46.28664 1.53401,63.5 5.5485,41.67201 20.11651,79.94316 44.19062,116.09181 l 7.47108,11.21826 -2.11511,6.84497 c -1.16332,3.76473 -3.27809,12.46996 -4.69949,19.34496 -3.52085,17.0295 -4.37154,45.3757 -1.84746,61.55997 3.69421,23.6871 10.93319,45.3682 21.50412,64.406 2.82493,5.0875 4.94765,9.4386 4.71717,9.6691 -0.23048,0.2305 -5.88942,-3.4827 -12.57542,-8.2514 z m 439.77382,-62.2047 c -29.39,-29.52343 -82.2763,-82.70397 -117.525,-118.17897 l -64.0886,-64.5 38.4063,-39 38.4062,-39 16.0691,16.5 c 22.737,23.34675 69.4199,70.56758 149.5829,151.30661 l 69.3086,69.80662 -2.11,2.69338 c -10.9638,13.99576 -48.2489,51.75926 -65.5314,66.37236 l -9.0818,7.679 z m 111.0347,-69.92897 c -16.7231,-16.9125 -33.2418,-33.74868 -36.7082,-37.41374 l -6.3026,-6.66373 4.4277,-8.83627 c 16.2041,-32.33792 26.6657,-69.45734 29.4055,-104.33626 1.1514,-14.65741 0.7644,-56.45177 -0.6158,-66.5 -6.3222,-46.0289 -25.4529,-89.82873 -55.4663,-126.99008 l -6.4532,-7.99008 1.9991,-5.00992 c 5.5117,-13.81326 11.9322,-36.78155 14.958,-53.50992 1.9828,-10.96194 2.2543,-15.69915 2.2067,-38.5 -0.044,-21.33058 -0.4112,-28.02042 -2.0419,-37.25 -1.0933,-6.1875 -1.7985,-11.25 -1.5671,-11.25 1.2135,0 22.9361,18.7392 33.4544,28.85978 57.71877,55.53631 97.71737,127.90622 114.20917,206.64022 9.5701,45.68902 10.7003,99.2445 2.9861,141.5 -10.5818,57.96321 -28.2765,103.60745 -57.6653,148.75 -3.312,5.0875 -6.1116,9.25 -6.2213,9.25 -0.1097,0 -13.88187,-13.8375 -30.60497,-30.75 z"
       id="path1" />
  </g>
</svg>
